<?xml version="1.0" encoding="UTF-8"?>
<svg width="197px" height="193px" viewBox="0 0 197 193" version="1.1" xmlns="http://www.w3.org/2000/svg" xmlns:xlink="http://www.w3.org/1999/xlink">
    <!-- Generator: Sketch 41.1 (35376) - http://www.bohemiancoding.com/sketch -->
    <title>Combined Shape</title>
    <desc>Created with Sketch.</desc>
    <defs></defs>
    <g id="Page-1" stroke="none" stroke-width="1" fill="none" fill-rule="evenodd">
        <path d="M190.5076,147.758216 L190.5076,45.2403516 C189.39033,37.6468143 186.417985,30.6577661 182.065773,24.7478323 L140.326861,187 L145.002227,187 C168.111341,187 187.240536,169.959017 190.507601,147.758211 Z M11.4925383,30.1807609 L77.535,54.25 L6.72,80.058 L6,79.796 L6,65.8958815 L6,51.995763 C6,44.1017463 7.98873992,36.6721991 11.4925383,30.1807609 Z M6,100.036627 L6.7198,99.7737 L95.7798,132.2317 L11.5503358,162.928827 C8.0106134,156.412038 6,148.943537 6,141.004237 L6,100.036627 Z M24.5392758,177.910903 L117.1222,144.1694 L128.139837,187 L51.997773,187 C41.7055405,187 32.2028247,183.620847 24.5392758,177.910903 Z M81.5784257,6 L90.0964,39.1119 L24.4237757,15.1773459 C32.10728,9.41429408 41.6538226,6 51.997773,6 L81.5784257,6 Z M100.981803,6 L134.2337,135.2596 L166.162328,11.1439239 C159.827914,7.85700455 152.632009,6 145.002227,6 L100.981803,6 Z M33.7688,89.9162 L110.3448,117.8242 L97.2168,66.7922 L33.7688,89.9162 Z" id="Combined-Shape" stroke="#265C59" stroke-width="12"></path>
    </g>
</svg>